<?xml version="1.0" encoding="utf-8"?>
<!-- Generator: Adobe Illustrator 26.5.0, SVG Export Plug-In . SVG Version: 6.00 Build 0)  -->
<svg version="1.1" id="Layer_1" xmlns="http://www.w3.org/2000/svg" xmlns:xlink="http://www.w3.org/1999/xlink" x="0px" y="0px"
	 viewBox="0 0 512 512" style="enable-background:new 0 0 512 512;" xml:space="preserve">
<style type="text/css">
	.st0{fill:#8E714E;}
	.st1{fill:#442D22;}
	.st2{fill:#FFFFFF;}
	.st3{fill:#A6A385;}
	.st4{fill:#499D4A;}
	.st5{fill:#58AA50;}
</style>
<g id="XMLID_1_">
	<path id="XMLID_8_" class="st0" d="M477.19,243.38c-0.42,0.14-0.98,1.12-0.98,1.68c-0.14,3.65-0.14,13.46-0.14,20.2
		c0,0.14,0.28,0.56,0.56,0.56c1.4,0.14,4.77,0.14,7.57,0.14c3.93,0,6.31-0.56,7.57-1.12c3.37-1.68,4.91-5.33,4.91-9.26
		c0-8.98-6.31-12.34-15.57-12.34C480.42,243.1,478.59,243.1,477.19,243.38z M501.03,284.75c0-9.12-6.73-14.17-18.93-14.17
		c-0.56,0-4.49-0.14-5.33,0.14c-0.28,0.14-0.7,0.28-0.7,0.56c0,6.59-0.14,16.97,0.14,21.04c0.14,1.82,1.54,4.21,3.09,5.05
		c1.68,0.98,5.47,1.12,7.99,1.12C494.72,298.22,501.03,294.15,501.03,284.75z M458.4,238.33c0.98,0,3.65,0.28,10.8,0.28
		c6.73,0,12.06-0.14,18.65-0.14c7.99,0,19.07,2.81,19.07,14.87c0,5.89-4.21,10.66-9.54,12.9c-0.28,0.14-0.28,0.28,0,0.42
		c7.71,1.96,14.59,6.73,14.59,15.85c0,8.84-5.61,14.45-13.6,17.95c-4.91,2.1-10.94,2.81-17.25,2.81c-4.77,0-17.39-0.56-24.4-0.42
		c-0.7-0.28,0.7-3.65,1.26-4.21c1.68-0.14,2.95-0.14,4.77-0.7c2.52-0.7,2.81-1.4,3.09-5.19c0.14-3.23,0.14-14.73,0.14-22.86
		c0-11.22,0.14-18.79,0-22.44c-0.14-2.81-1.12-3.79-3.09-4.35c-1.54-0.28-4.21-0.7-6.31-0.98
		C456.29,241.83,457.83,238.75,458.4,238.33z M405.1,295.83c2.24,1.82,6.59,2.52,10.38,2.52c5.05,0,9.96-0.98,14.73-5.33
		c4.91-4.49,8.27-11.22,8.27-22.16c0-10.38-3.93-18.93-12.06-23.98c-4.63-2.81-10.52-4.07-17.39-4.07c-1.96,0-3.93,0.14-5.19,0.7
		c-0.28,0.14-0.98,0.98-0.98,1.54c-0.14,1.82-0.14,16.13-0.14,24.4c0,8.56,0,20.62,0.14,22.02C403,292.75,403.7,294.85,405.1,295.83
		z M384.06,238.33c1.82,0,8.56,0.28,11.78,0.28c5.75,0,9.96-0.28,21.04-0.28c9.26,0,16.97,2.52,22.58,7.15
		c6.73,5.75,10.24,13.89,10.24,23.7c0,13.89-6.31,22.02-12.76,26.65c-6.31,4.77-14.73,7.43-26.51,7.43
		c-6.31,0-17.11-0.14-26.09-0.28h-0.14c-0.42-0.84,0.7-4.07,1.54-4.21c2.38-0.28,3.09-0.42,4.21-0.84c1.96-0.7,2.24-1.82,2.52-5.19
		c0.28-6.31,0.14-14.03,0.14-22.72c0-6.17,0.14-18.23-0.14-22.16c-0.28-3.23-1.68-4.07-4.49-4.63c-1.4-0.28-3.23-0.7-5.75-0.98
		C381.96,241.69,383.64,238.89,384.06,238.33z"/>
	<path id="XMLID_18_" class="st1" d="M272.42,299.34c-2.24-0.28-3.93-0.7-6.03-1.54c-0.28-0.14-0.7-1.12-0.7-1.54
		c-0.14-3.23-0.14-12.48-0.14-18.65c0-5.05-0.84-9.4-2.95-12.34c-2.52-3.51-6.03-5.61-10.66-5.61c-4.07,0-9.54,2.81-14.03,6.59
		c-0.14,0.14-0.84,0.7-0.7-0.28c0-0.98,0.14-3.09,0.28-4.49c0.14-1.26-0.7-1.96-0.7-1.96c-2.95,1.54-11.22,3.37-14.31,3.65
		c-2.24,0.42-2.81,2.52-0.42,3.37h0.14c2.52,0.7,4.21,1.54,5.47,2.38c0.98,0.7,0.84,1.82,0.84,2.52c0.14,6.87,0.14,17.53-0.14,23.42
		c-0.14,2.24-0.7,3.09-2.38,3.51l0.14-0.14c-1.26,0.28-2.24,0.56-3.93,0.7c-0.56,0.56-0.56,3.51,0,4.21c0.98,0,6.31-0.28,10.8-0.28
		c6.03,0,9.26,0.28,10.8,0.28c0.7-0.7,0.84-3.51,0.42-4.21c-1.82-0.14-3.09-0.28-4.21-0.7c-1.68-0.42-2.1-1.26-2.24-3.09
		c-0.14-4.91-0.14-15.29-0.14-22.3c0-1.96,0.56-2.81,1.12-3.37c2.1-1.82,5.61-3.09,8.56-3.09s4.91,0.98,6.31,2.1
		c1.96,1.68,2.66,4.07,2.95,5.75c0.42,3.93,0.28,11.78,0.28,18.65c0,3.65-0.28,4.63-1.68,5.05c-0.7,0.28-2.24,0.7-4.21,0.84
		c-0.7,0.7-0.42,3.51,0,4.21c2.66,0,5.75-0.28,10.38-0.28c5.75,0,9.4,0.28,10.94,0.28C272.56,302.84,272.7,300.04,272.42,299.34
		L272.42,299.34z M297.95,264.13c-4.91,0-7.99,3.79-7.99,9.68c0,6.03,2.66,12.9,10.24,12.9c1.26,0,3.65-0.56,4.77-1.82
		c1.82-1.68,2.95-5.05,2.95-8.56C308.04,268.76,304.26,264.13,297.95,264.13z M297.25,304.95c-1.82,0-3.09,0.56-3.93,0.98
		c-3.93,2.52-5.61,4.91-5.61,7.71c0,2.66,0.98,4.77,3.23,6.59c2.66,2.24,6.31,3.37,11.08,3.37c9.4,0,13.6-5.05,13.6-10.1
		c0-3.51-1.82-5.75-5.33-7.15C307.62,305.51,303,304.95,297.25,304.95z M297.95,328.93c-5.61,0-9.68-1.26-13.18-3.93
		c-3.37-2.52-4.91-6.45-4.91-9.12c0-0.7,0.14-2.81,1.82-4.63c0.98-1.12,3.23-3.23,8.56-6.87c0.14-0.14,0.28-0.14,0.28-0.42
		c0-0.28-0.14-0.42-0.42-0.42c-4.35-1.68-5.61-4.35-6.03-5.75v-0.14c-0.14-0.56-0.28-1.12,0.56-1.68c0.7-0.42,1.54-0.98,2.52-1.68
		c1.54-0.98,3.23-1.96,4.21-2.81c0.14-0.14,0.14-0.42,0.14-0.56s-0.14-0.42-0.42-0.42c-6.45-2.1-9.68-6.87-9.68-14.17
		c0-4.77,2.1-8.98,5.89-11.64c2.52-1.96,9.12-4.49,13.32-4.49h0.28c4.35,0.14,6.73,0.98,10.1,2.24c1.82,0.7,3.65,0.98,6.03,0.98
		c3.65,0,5.19-1.12,6.45-2.38c0.14,0.14,0.28,0.7,0.42,1.82c0.14,1.26-0.28,2.95-1.26,4.21c-0.7,0.98-2.38,1.82-4.07,1.82h-0.42
		c-1.68-0.14-2.38-0.42-2.38-0.42l-0.42,0.14c-0.14,0.14,0,0.42,0.14,0.7l0.14,0.14c0.14,0.84,0.56,3.37,0.56,3.93
		c0,7.57-3.09,10.94-6.31,13.32c-3.09,2.24-6.73,3.79-10.8,4.21c-0.14,0-0.42,0-1.26,0.14c-0.42,0-1.12,0.14-1.26,0.14h0.14
		c-0.7,0.14-2.52,1.12-2.52,2.66c0,1.4,0.84,3.09,4.77,3.37c0.84,0.14,1.68,0.14,2.52,0.14c5.33,0.42,11.78,0.84,14.87,1.82
		c4.21,1.54,6.87,5.33,6.87,9.82c0,6.87-4.91,13.18-13.04,17.11C306.22,327.95,302.29,328.93,297.95,328.93z M350.54,264.56
		c-1.96,0-3.65,0.42-5.05,1.4c-3.65,2.24-5.47,6.59-5.47,13.18c0,12.06,6.03,20.62,14.73,20.62c2.52,0,4.63-0.7,6.31-2.24
		c2.66-2.24,4.07-6.59,4.07-12.9C365.41,272.55,359.38,264.56,350.54,264.56z M352.22,304.11c-15.71,0-21.32-11.5-21.32-22.3
		c0-7.57,3.09-13.46,9.12-17.53c4.35-2.66,9.54-4.21,14.17-4.21c12.06,0,20.48,8.56,20.48,21.04c0,8.42-3.37,15.01-9.68,19.07
		C361.9,302.14,356.57,304.11,352.22,304.11L352.22,304.11z M187.71,264.56c-1.96,0-3.65,0.42-5.05,1.4
		c-3.65,2.24-5.47,6.59-5.47,13.18c0,12.06,6.03,20.62,14.73,20.62c2.52,0,4.63-0.7,6.31-2.24c2.66-2.24,4.07-6.59,4.07-12.9
		C202.43,272.55,196.54,264.56,187.71,264.56z M189.25,304.11c-15.71,0-21.32-11.5-21.32-22.3c0-7.57,3.09-13.46,9.12-17.53
		c4.35-2.66,9.54-4.21,14.17-4.21c12.06,0,20.48,8.56,20.48,21.04c0,8.42-3.37,15.01-9.68,19.07
		C199.07,302.14,193.74,304.11,189.25,304.11z M83.78,303.12c-0.14-0.28-0.42-1.12-0.28-2.1c0-0.7,0.14-1.26,0.28-1.4
		c1.96-0.28,2.95-0.56,4.07-0.84c1.82-0.42,2.52-1.54,2.66-3.79c0.28-5.61,0.28-16.13,0.14-23.42v-0.14c0-0.84,0-1.82-0.98-2.52
		c-1.54-0.98-3.23-1.82-5.61-2.38c-0.84-0.28-1.4-0.7-1.26-1.26c0-0.56,0.56-1.26,1.82-1.4c3.09-0.28,10.94-2.24,14.17-3.65
		c0.14,0.14,0.42,0.7,0.42,1.54l-0.14,0.98c-0.14,0.98-0.14,2.24-0.14,3.37c0,0.42,0.42,0.7,0.7,0.7c0.14,0,0.42-0.14,0.56-0.14
		c5.89-4.63,11.22-6.31,14.03-6.31c4.49,0,7.99,2.1,10.66,6.59c0.14,0.28,0.42,0.42,0.7,0.42c0.14,0,0.42-0.14,0.56-0.28
		c5.47-4.21,10.94-6.59,14.45-6.59c8.56,0,13.6,6.31,13.6,17.25c0,3.09,0,7.01-0.14,10.66c0,3.23-0.14,6.17-0.14,8.27
		c0,0.42,0.7,1.96,1.68,2.24c1.26,0.7,3.09,0.98,5.33,1.26h0.14c0.14,0.7-0.14,3.09-0.56,3.51c-0.56,0-1.4,0-2.24-0.14
		c-1.82-0.14-4.21-0.14-7.01-0.14c-5.75,0-8.7,0.14-11.5,0.28c-0.14-0.7-0.28-2.95,0-3.51c1.68-0.28,2.52-0.56,3.51-0.84
		c1.82-0.56,2.24-1.4,2.38-3.79c0-1.82,0.42-16.69-0.14-20.34c-0.56-3.65-3.37-7.99-9.4-7.99c-2.24,0-5.89,0.98-9.4,3.65
		c-0.14,0.14-0.42,0.7-0.42,0.98v0.14c0.42,1.96,0.42,4.21,0.42,7.57v6.03c0,4.21-0.14,7.99,0,10.94c0,1.96,1.26,2.52,2.24,2.81
		c0.56,0.14,0.98,0.14,1.4,0.28c0.84,0.14,1.68,0.42,2.95,0.7c0.14,0.42,0.14,1.54-0.14,2.52c-0.14,0.56-0.28,0.84-0.42,0.98
		c-3.09-0.14-6.31-0.14-11.08-0.14c-1.4,0-3.79,0.14-5.75,0.14c-1.68,0-3.23,0.14-4.21,0.14c-0.14-0.14-0.28-0.84-0.28-1.82
		c0-0.84,0.14-1.54,0.42-1.68c0.42-0.14,0.84-0.14,1.26-0.14c1.12-0.14,1.96-0.42,2.95-0.56c1.54-0.42,2.1-1.26,2.24-3.37
		c0.28-4.63,0.56-17.81-0.14-21.18c-1.12-5.33-4.21-7.99-9.12-7.99c-2.81,0-6.45,1.4-9.4,3.65c-0.42,0.42-0.84,1.26-0.84,2.1v5.47
		c0,6.59,0,15.01,0.14,18.51c0.14,1.12,0.42,2.38,2.52,2.81c0.42,0.14,1.26,0.28,2.1,0.42l1.68,0.28c0.14,0.56,0.14,2.81-0.28,3.51
		c-0.98,0-1.96-0.14-3.37-0.14c-1.96-0.14-4.49-0.14-7.15-0.14c-3.23,0-5.61,0.14-7.43,0.14C85.88,303.12,84.9,303.12,83.78,303.12z
		"/>
	<path id="XMLID_19_" class="st2" d="M35.11,325.28l-3.79-1.26c0,0,0.42-19.35-6.45-20.76c-4.63-5.33,0.7-227.21,17.39-0.7
		c0,0-5.75,2.81-6.73,7.71C34.41,315.19,35.11,325.28,35.11,325.28z"/>
	<path id="XMLID_20_" class="st3" d="M35.11,325.28l-3.79-1.26c0,0,0.42-19.35-6.45-20.76c-4.63-5.33,0.7-227.21,17.39-0.7
		c0,0-5.75,2.81-6.73,7.71C34.41,315.19,35.11,325.28,35.11,325.28z"/>
	<path id="XMLID_21_" class="st2" d="M37.22,306.63c0,0,33.1-21.74,25.39-67.18c-7.43-32.96-25.11-43.76-27.07-47.97
		c-2.1-2.95-4.21-8.13-4.21-8.13l1.4,91.73C32.73,275.21,29.92,303.27,37.22,306.63"/>
	<path id="XMLID_22_" class="st4" d="M37.22,306.63c0,0,33.1-21.74,25.39-67.18c-7.43-32.96-25.11-43.76-27.07-47.97
		c-2.1-2.95-4.21-8.13-4.21-8.13l1.4,91.73C32.73,275.21,29.92,303.27,37.22,306.63"/>
	<path id="XMLID_23_" class="st2" d="M29.36,307.89c0,0-31.14-21.18-29.31-58.63s23.7-55.82,28.05-59.19
		c2.81-2.95,2.81-4.07,3.09-7.01c1.96,4.21,1.54,62.13,1.82,69C33.85,278.44,31.47,302.84,29.36,307.89z"/>
	<path id="XMLID_24_" class="st5" d="M29.36,307.89c0,0-31.14-21.18-29.31-58.63s23.7-55.82,28.05-59.19
		c2.81-2.95,2.81-4.07,3.09-7.01c1.96,4.21,1.54,62.13,1.82,69C33.85,278.44,31.47,302.84,29.36,307.89z"/>
</g>
</svg>
