<?xml version="1.0" encoding="utf-8"?>
<!-- Generator: Adobe Illustrator 26.5.0, SVG Export Plug-In . SVG Version: 6.00 Build 0)  -->
<svg version="1.1" id="Layer_1" xmlns="http://www.w3.org/2000/svg" xmlns:xlink="http://www.w3.org/1999/xlink" x="0px" y="0px"
	 viewBox="0 0 512 512" style="enable-background:new 0 0 512 512;" xml:space="preserve">
<style type="text/css">
	.st0{fill:#336791;}
	.st1{fill:#FFFFFF;}
</style>
<g id="XMLID_1_">
	<path id="XMLID_3_" d="M503.02,306.6c-2.95-8.98-10.8-15.29-20.9-16.83c-4.77-0.7-10.24-0.42-16.69,0.98
		c-11.22,2.38-19.64,3.23-25.67,3.37c23-38.86,41.8-83.18,52.46-124.84c17.39-67.47,8.14-98.19-2.81-112.08
		C460.66,20.45,418.58,0.67,367.94,0.11c-27.07-0.28-50.78,5.05-63.12,8.84c-11.5-1.96-23.99-3.23-36.89-3.37
		c-24.41-0.42-45.87,4.91-64.38,15.85c-10.24-3.51-26.51-8.28-45.45-11.36C113.63,2.77,77.86,8.52,51.63,26.9
		C19.93,49.34,5.2,88.2,8,142.62c0.84,17.25,10.52,69.71,25.67,119.51c8.7,28.62,18.09,52.32,27.63,70.7
		c13.61,25.95,28.33,41.1,44.75,46.57c9.26,3.09,25.95,5.19,43.48-9.4c2.24,2.67,5.19,5.33,9.12,7.86
		c5.05,3.23,11.08,5.75,17.25,7.29c22.02,5.47,42.64,4.07,60.32-3.65c0.14,3.09,0.14,6.17,0.28,8.7c0.14,4.21,0.28,8.28,0.42,12.2
		c0.98,25.95,2.81,46.29,8,60.32c0.28,0.84,0.7,1.96,1.12,3.23c2.67,8,7.01,21.46,18.09,31.98c11.5,10.94,25.39,14.17,38.15,14.17
		c6.45,0,12.48-0.84,17.81-1.96c19.08-4.07,40.82-10.38,56.53-32.68c14.87-21.18,22.02-52.88,23.29-103.1
		c0.14-1.4,0.28-2.81,0.42-4.07c0.14-0.84,0.14-1.82,0.28-2.67l3.51,0.28h0.84c19.5,0.84,43.2-3.23,57.79-9.96
		C474.68,352.61,511.72,332.97,503.02,306.6"/>
	<path id="XMLID_4_" class="st0" d="M469.77,311.79c-57.79,11.92-61.86-7.71-61.86-7.71c61.02-90.62,86.55-205.64,64.52-233.69
		c-60.04-76.73-164.12-40.4-165.8-39.56l-0.56,0.14c-11.36-2.38-24.27-3.79-38.57-4.07c-26.23-0.42-46.01,6.87-61.02,18.24
		c0,0-185.58-76.45-176.88,96.09c1.82,36.75,52.6,277.88,113.2,204.94c22.16-26.65,43.48-49.09,43.48-49.09
		c10.66,7.01,23.29,10.66,36.75,9.4l0.98-0.84c-0.28,3.37-0.14,6.59,0.42,10.38c-15.57,17.39-11.08,20.48-42.22,26.93
		c-31.56,6.45-13.05,18.09-0.98,21.18c14.73,3.65,48.67,8.84,71.54-23.29l-0.98,3.65c6.17,4.91,10.38,31.84,9.68,56.25
		c-0.7,24.41-1.26,41.24,3.65,54.28c4.77,13.05,9.68,42.64,50.64,33.81c34.23-7.29,52.04-26.37,54.57-58.07
		c1.68-22.58,5.75-19.22,6.03-39.42l3.23-9.54c3.65-30.58,0.56-40.4,21.74-35.91l5.19,0.42c15.57,0.7,35.91-2.52,47.83-8
		C479.87,326.52,495.02,306.6,469.77,311.79L469.77,311.79"/>
	<path id="XMLID_5_" class="st1" d="M217.29,157.77c-5.19-0.7-9.96,0-12.34,1.68c-1.4,0.98-1.82,2.24-1.82,2.95
		c-0.28,2.1,1.26,4.49,2.1,5.75c2.67,3.51,6.45,5.89,10.24,6.31c0.56,0.14,1.12,0.14,1.68,0.14c6.31,0,12.06-4.91,12.48-8.56
		C230.33,161.7,223.74,158.61,217.29,157.77"/>
	<path id="XMLID_6_" class="st1" d="M389.96,157.91L389.96,157.91c-0.56-3.51-6.87-4.63-12.9-3.79c-6.03,0.84-11.78,3.51-11.36,7.15
		c0.42,2.81,5.33,7.57,11.36,7.57c0.56,0,0.98,0,1.54-0.14c3.93-0.56,6.87-3.09,8.28-4.49C388.98,161.98,390.1,159.6,389.96,157.91"
		/>
	<path id="XMLID_15_" class="st1" d="M488.99,310.39c-2.24-6.73-9.26-8.84-21.04-6.31c-35.07,7.29-47.55,2.24-51.62-0.84
		c27.21-41.52,49.66-91.6,61.72-138.31c5.75-22.16,8.84-42.78,9.12-59.47c0.28-18.38-2.81-31.98-9.26-40.12
		c-26.09-33.24-64.24-51.2-110.67-51.62c-31.84-0.42-58.77,7.86-63.96,10.1c-10.94-2.67-23-4.35-35.91-4.63
		c-23.85-0.42-44.61,5.33-61.72,16.97c-7.43-2.81-26.65-9.4-50.08-13.19c-40.54-6.59-72.8-1.54-95.81,14.73
		C32.13,57.06,19.5,91.84,21.89,140.94c0.84,16.55,10.24,67.33,25.11,116.14c19.5,64.1,40.82,100.43,63.26,107.87
		c2.67,0.84,5.61,1.54,8.98,1.54c8.14,0,18.24-3.65,28.62-16.13c17.25-20.76,33.38-38.29,39.42-44.61
		c8.84,4.77,18.52,7.29,28.33,7.57c0,0.28,0,0.56,0,0.84c-1.96,2.38-3.65,4.35-5.05,6.17c-6.87,8.7-8.28,10.52-30.3,15.01
		c-6.31,1.26-22.86,4.77-23.14,16.41c-0.28,12.76,19.64,18.09,22.02,18.66c7.86,1.96,15.57,2.95,22.86,2.95
		c17.67,0,33.24-5.75,45.73-17.11c-0.42,45.45,1.54,90.33,7.01,103.94c4.49,11.22,15.43,38.43,49.94,38.43
		c5.05,0,10.66-0.56,16.83-1.96c36.05-7.71,51.62-23.71,57.65-58.77c3.23-18.8,8.84-63.54,11.36-87.53
		c5.47,1.68,12.62,2.52,20.34,2.52c15.99,0,34.51-3.37,46.01-8.84C469.77,338.16,493.2,323.29,488.99,310.39z M403.15,148.09
		c-0.14,7.15-1.12,13.47-2.1,20.2c-1.12,7.29-2.24,14.73-2.52,23.71c-0.28,8.84,0.84,17.95,1.82,26.93
		c2.1,17.95,4.35,36.33-4.21,54.57c-1.26-2.38-2.67-4.91-3.79-7.86c-1.12-2.52-3.37-6.73-6.59-12.48
		c-12.48-22.3-41.52-74.62-26.65-95.95C363.59,151.18,374.95,144.59,403.15,148.09z M368.92,28.02
		c41.52,0.98,74.34,16.41,97.49,46.15c17.81,22.72-1.82,126.38-58.63,215.74c-0.56-0.7-1.12-1.4-1.68-2.1
		c-0.28-0.28-0.42-0.56-0.7-0.84c14.73-24.27,11.78-48.25,9.26-69.43c-0.98-8.7-2.1-16.97-1.82-24.69
		c0.28-8.28,1.4-15.29,2.38-22.02c1.26-8.42,2.67-17.11,2.24-27.35c0.28-1.12,0.42-2.38,0.28-3.79
		c-0.98-9.82-12.06-39.14-34.93-65.79c-12.48-14.59-30.72-30.86-55.55-41.8C337.92,29.7,352.51,27.6,368.92,28.02z M136.77,341.11
		c-11.5,13.75-19.36,11.08-22.02,10.24c-16.97-5.61-36.61-41.52-54-98.47C45.74,203.64,36.9,154.12,36.2,140.24
		c-2.24-43.9,8.42-74.48,31.7-90.9c37.73-26.79,99.73-10.8,124.7-2.67c-0.42,0.42-0.7,0.7-1.12,0.98
		C150.52,89.04,151.5,159.6,151.64,163.8c0,1.68,0.14,4.07,0.28,7.29c0.7,11.92,1.96,33.95-1.54,59.05
		c-3.23,23.29,3.93,46.01,19.64,62.42c1.68,1.68,3.37,3.37,5.05,4.77C168.19,304.92,153.04,321.61,136.77,341.11z M180.54,282.75
		c-12.62-13.19-18.52-31.7-15.85-50.5c3.65-26.37,2.38-49.52,1.54-61.86c-0.14-1.68-0.14-3.23-0.28-4.49
		c6.03-5.33,33.67-20.2,53.44-15.57c8.98,2.1,14.45,8.14,16.83,18.8c11.78,54.71,1.54,77.43-6.73,95.66
		c-1.68,3.79-3.37,7.29-4.63,11.08l-1.12,2.81c-2.67,7.15-5.19,13.89-6.73,20.34C203.54,298.88,190.49,293.13,180.54,282.75z
		 M182.5,356.4c-3.93-0.98-7.43-2.67-9.54-4.07c1.68-0.84,4.77-1.96,10.24-3.09c25.95-5.33,29.88-9.12,38.71-20.2
		c1.96-2.52,4.35-5.47,7.43-8.98l0,0c4.63-5.19,6.87-4.35,10.66-2.81c3.09,1.26,6.17,5.19,7.43,9.54c0.56,2.1,1.26,5.89-0.98,8.98
		C228.23,361.59,201.72,361.16,182.5,356.4z M318.28,482.78c-31.7,6.73-42.92-9.4-50.36-27.91c-4.77-11.92-7.15-65.79-5.47-125.26
		c0-0.84-0.14-1.54-0.28-2.24c-0.14-1.4-0.42-2.81-0.84-4.21c-2.52-8.7-8.56-15.85-15.71-18.94c-2.95-1.12-8.14-3.37-14.45-1.82
		c1.4-5.61,3.65-11.92,6.31-18.66l1.12-2.81c1.26-3.23,2.67-6.59,4.35-10.1c8.56-19.22,20.48-45.45,7.57-104.64
		c-4.77-22.16-20.76-32.96-45.17-30.58c-14.59,1.54-27.91,7.43-34.51,10.8c-1.4,0.7-2.81,1.4-3.93,2.1
		c1.82-22.3,8.84-64.1,35.07-90.62c16.13-16.69,38.15-24.97,64.95-24.55c52.74,0.84,86.55,27.91,105.76,50.5
		c16.41,19.5,25.39,39,28.9,49.66c-26.79-2.67-44.89,2.52-54.14,15.71c-20.06,28.62,10.94,84.3,25.95,111.09
		c2.67,4.91,5.05,9.12,5.89,10.94c4.91,11.78,11.08,19.64,15.71,25.39c1.4,1.82,2.81,3.51,3.79,4.91
		c-8.14,2.38-22.58,7.71-21.32,34.65c-1.12,13.47-8.7,76.87-12.48,99.31C359.8,465.11,348.86,476.19,318.28,482.78z M450.7,331.15
		c-8.28,3.79-22.16,6.73-35.35,7.29c-14.59,0.7-21.88-1.68-23.71-3.09c-0.84-16.83,5.47-18.52,12.06-20.48
		c0.98-0.28,2.1-0.56,3.09-0.98c0.56,0.56,1.26,0.98,1.96,1.4c11.64,7.71,32.54,8.56,62,2.52h0.28
		C467.11,321.75,460.38,326.66,450.7,331.15z"/>
</g>
</svg>
