<?xml version="1.0" encoding="utf-8"?>
<!-- Generator: Adobe Illustrator 27.0.0, SVG Export Plug-In . SVG Version: 6.00 Build 0)  -->
<svg version="1.1" id="Layer_1" xmlns="http://www.w3.org/2000/svg" xmlns:xlink="http://www.w3.org/1999/xlink" x="0px" y="0px"
	 viewBox="0 0 512 512" style="enable-background:new 0 0 512 512;" xml:space="preserve">
<style type="text/css">
	.st0{fill:#007ACC;}
	.st1{fill:#FFFFFF;}
</style>
<g id="XMLID_1_">
	<polygon id="XMLID_2_" class="st0" points="0,256 0,512 256,512 512,512 512,256 512,0 256,0 0,0 	"/>
	<path id="XMLID_3_" class="st1" d="M113.2,257.68l-0.14,20.9h33.39h33.39v94.68v94.68h23.57h23.57v-94.68v-94.68h33.24h33.39
		v-20.62c0-11.36-0.28-20.9-0.56-21.18c-0.28-0.28-40.82-0.42-89.92-0.42l-89.49,0.28L113.2,257.68z"/>
	<path id="XMLID_4_" class="st1" d="M413.11,236.22c13.05,3.23,22.86,8.98,31.98,18.52c4.77,5.05,11.64,14.17,12.2,16.41
		c0.14,0.7-22.16,15.57-35.63,23.99c-0.42,0.28-2.38-1.82-4.63-5.05c-6.59-9.54-13.47-13.75-23.99-14.45
		c-15.57-1.12-25.53,7.01-25.39,20.62c0,3.93,0.56,6.31,2.24,9.54c3.37,7.01,9.82,11.36,29.6,19.92
		c36.61,15.71,52.32,26.23,62.14,40.96c10.94,16.55,13.33,42.78,5.89,62.42c-8.14,21.32-28.34,35.77-56.67,40.54
		c-8.84,1.54-29.6,1.26-39-0.42c-20.62-3.65-40.12-13.75-52.04-27.21c-4.77-5.19-13.89-18.8-13.33-19.78
		c0.28-0.28,2.38-1.68,4.77-2.95c2.24-1.26,10.94-6.31,19.08-10.94l14.73-8.56l3.09,4.49c4.35,6.59,13.75,15.57,19.36,18.66
		c16.27,8.56,38.72,7.43,49.8-2.52c4.77-4.35,6.73-8.84,6.73-15.29c0-5.89-0.7-8.56-3.79-13.05c-3.93-5.75-12.06-10.52-35.21-20.48
		c-26.37-11.36-37.73-18.52-48.25-29.6c-6.03-6.45-11.64-16.97-14.03-25.53c-1.96-7.29-2.38-25.39-0.84-32.68
		c5.47-25.53,24.69-43.34,52.46-48.53C383.37,233.42,404.27,233.98,413.11,236.22z"/>
</g>
</svg>
