<svg width="150" height="42" viewBox="0 0 150 42" fill="none" xmlns="http://www.w3.org/2000/svg">
<path d="M54.7664 11.584H59.4384V18H57.9344L57.9184 16.288H57.8864C57.2784 17.376 55.9824 18.176 54.2064 18.176C50.7664 18.176 48.7344 15.456 48.7344 11.952C48.7344 8.4 50.7824 5.536 54.4944 5.536C56.6384 5.536 58.2864 6.496 59.3104 8.096L57.9984 8.928C57.2784 7.696 56.1104 6.928 54.5104 6.928C51.8704 6.928 50.3824 9.024 50.3824 11.904C50.3824 14.864 51.8864 16.784 54.4624 16.784C56.5264 16.784 57.8704 15.536 57.8704 13.456C57.8704 13.264 57.8704 13.088 57.8384 12.944H54.7664V11.584ZM62.876 13.04H67.644C67.548 11.632 66.844 10.512 65.324 10.512C63.82 10.512 63.02 11.6 62.876 13.04ZM67.772 15.84L68.828 16.784C68.06 17.68 66.956 18.176 65.58 18.176C62.876 18.176 61.34 16.4 61.34 13.696C61.34 11.104 62.876 9.232 65.356 9.232C67.82 9.232 69.148 11.072 69.148 13.424C69.148 13.68 69.132 14.08 69.1 14.304H62.892C63.052 15.936 63.996 16.88 65.596 16.88C66.54 16.88 67.26 16.528 67.772 15.84ZM69.8273 10.672V9.408H71.5393V6.688H73.0593V9.408H75.1233V10.672H73.0593V15.376C73.0593 16.4 73.3313 16.864 74.4513 16.864C74.7393 16.864 74.9473 16.832 75.1233 16.8V18.032C74.7873 18.112 74.4033 18.176 73.9233 18.176C72.2913 18.176 71.5393 17.28 71.5393 15.76V10.672H69.8273ZM76.8063 18V5.712H78.3263V10.64H78.3583C78.9343 9.76 79.8943 9.232 81.1263 9.232C82.9823 9.232 84.1503 10.432 84.1503 12.24V18H82.6303V12.544C82.6303 11.424 81.9743 10.544 80.6783 10.544C79.2383 10.544 78.3263 11.536 78.3263 12.88V18H76.8063ZM89.45 18.176C87.93 18.176 86.746 17.728 85.85 16.88L86.778 15.84C87.53 16.56 88.474 16.896 89.498 16.896C90.858 16.896 91.514 16.4 91.514 15.664C91.514 14.848 90.65 14.656 89.21 14.352C87.594 14 86.154 13.504 86.154 11.84C86.154 10.368 87.306 9.232 89.546 9.232C90.922 9.232 91.994 9.648 92.89 10.464L91.978 11.504C91.242 10.832 90.426 10.512 89.498 10.512C88.298 10.512 87.69 11.024 87.69 11.68C87.69 12.48 88.458 12.656 89.946 12.976C91.53 13.328 93.05 13.776 93.05 15.488C93.05 17.056 91.802 18.176 89.45 18.176ZM95.8604 13.04H100.628C100.532 11.632 99.8284 10.512 98.3084 10.512C96.8044 10.512 96.0044 11.6 95.8604 13.04ZM100.756 15.84L101.812 16.784C101.044 17.68 99.9404 18.176 98.5644 18.176C95.8604 18.176 94.3244 16.4 94.3244 13.696C94.3244 11.104 95.8604 9.232 98.3404 9.232C100.804 9.232 102.132 11.072 102.132 13.424C102.132 13.68 102.116 14.08 102.084 14.304H95.8764C96.0364 15.936 96.9804 16.88 98.5804 16.88C99.5244 16.88 100.244 16.528 100.756 15.84ZM105.545 10.56H105.577C106.105 9.744 106.921 9.232 108.105 9.232C109.337 9.232 110.265 9.792 110.697 10.704C111.321 9.696 112.313 9.232 113.481 9.232C115.209 9.232 116.345 10.32 116.345 11.952V18H114.825V12.304C114.825 11.312 114.249 10.544 113.049 10.544C111.769 10.544 110.953 11.408 110.953 12.592V18H109.433V12.304C109.433 11.312 108.841 10.544 107.673 10.544C106.393 10.544 105.561 11.408 105.561 12.592V18H104.041V9.408H105.513L105.545 10.56ZM125.27 18H123.782L123.75 16.752H123.718C123.238 17.6 122.358 18.176 121.126 18.176C119.446 18.176 118.358 17.104 118.358 15.584C118.358 14.464 118.934 13.712 120.022 13.36C120.966 13.056 122.358 12.992 123.766 12.944V12.176C123.766 11.296 123.158 10.512 121.862 10.512C120.774 10.512 120.15 11.024 119.878 11.808L118.614 11.2C119.11 9.904 120.342 9.232 121.91 9.232C123.958 9.232 125.27 10.304 125.27 12.176V18ZM121.478 16.896C122.87 16.896 123.766 15.84 123.766 14.608V14.112C123.19 14.128 122.294 14.192 121.574 14.288C120.598 14.416 119.878 14.688 119.878 15.568C119.878 16.368 120.486 16.896 121.478 16.896ZM127.759 18V9.408H129.231L129.263 10.672H129.295C129.839 9.808 130.799 9.232 132.079 9.232C133.935 9.232 135.103 10.432 135.103 12.24V18H133.583V12.544C133.583 11.424 132.927 10.544 131.631 10.544C130.191 10.544 129.279 11.536 129.279 12.88V18H127.759ZM138.579 13.04H143.347C143.251 11.632 142.547 10.512 141.027 10.512C139.523 10.512 138.723 11.6 138.579 13.04ZM143.475 15.84L144.531 16.784C143.763 17.68 142.659 18.176 141.283 18.176C138.579 18.176 137.043 16.4 137.043 13.696C137.043 11.104 138.579 9.232 141.059 9.232C143.523 9.232 144.851 11.072 144.851 13.424C144.851 13.68 144.835 14.08 144.803 14.304H138.595C138.755 15.936 139.699 16.88 141.299 16.88C142.243 16.88 142.963 16.528 143.475 15.84ZM53.9824 36H52.3664V25.12H48.1104V23.712H58.2384V25.12H53.9824V36ZM58.7667 31.04H63.5347C63.4387 29.632 62.7347 28.512 61.2147 28.512C59.7107 28.512 58.9107 29.6 58.7667 31.04ZM63.6627 33.84L64.7187 34.784C63.9507 35.68 62.8467 36.176 61.4707 36.176C58.7667 36.176 57.2307 34.4 57.2307 31.696C57.2307 29.104 58.7667 27.232 61.2467 27.232C63.7107 27.232 65.0387 29.072 65.0387 31.424C65.0387 31.68 65.0227 32.08 64.9907 32.304H58.7827C58.9427 33.936 59.8867 34.88 61.4867 34.88C62.4307 34.88 63.1507 34.528 63.6627 33.84ZM70.5789 36.176C67.9389 36.176 66.4029 34.272 66.4029 31.744C66.4029 29.2 67.9229 27.232 70.5629 27.232C72.1949 27.232 73.3469 28.016 74.0029 29.248L72.7389 29.968C72.3069 29.136 71.6189 28.528 70.5309 28.528C68.8509 28.528 67.9389 29.936 67.9389 31.712C67.9389 33.44 68.8189 34.88 70.6269 34.88C71.7629 34.88 72.4509 34.304 72.8669 33.488L74.0669 34.176C73.4589 35.376 72.2429 36.176 70.5789 36.176ZM75.5407 36V23.712H77.0607V28.64H77.0927C77.6687 27.76 78.6287 27.232 79.8607 27.232C81.7167 27.232 82.8847 28.432 82.8847 30.24V36H81.3647V30.544C81.3647 29.424 80.7087 28.544 79.4127 28.544C77.9727 28.544 77.0607 29.536 77.0607 30.88V36H75.5407ZM85.3844 36V27.408H86.8564L86.8884 28.672H86.9204C87.4644 27.808 88.4244 27.232 89.7044 27.232C91.5604 27.232 92.7284 28.432 92.7284 30.24V36H91.2084V30.544C91.2084 29.424 90.5524 28.544 89.2564 28.544C87.8164 28.544 86.9044 29.536 86.9044 30.88V36H85.3844ZM98.8922 36.176C96.2042 36.176 94.6682 34.192 94.6682 31.712C94.6682 29.216 96.2042 27.232 98.8922 27.232C101.596 27.232 103.1 29.248 103.1 31.712C103.1 34.16 101.596 36.176 98.8922 36.176ZM98.8762 28.528C97.1002 28.528 96.2042 30 96.2042 31.712C96.2042 33.408 97.1002 34.88 98.8762 34.88C100.652 34.88 101.564 33.408 101.564 31.712C101.564 30 100.652 28.528 98.8762 28.528ZM106.592 36H105.072V23.712H106.592V36ZM112.783 36.176C110.095 36.176 108.559 34.192 108.559 31.712C108.559 29.216 110.095 27.232 112.783 27.232C115.487 27.232 116.991 29.248 116.991 31.712C116.991 34.16 115.487 36.176 112.783 36.176ZM112.767 28.528C110.991 28.528 110.095 30 110.095 31.712C110.095 33.408 110.991 34.88 112.767 34.88C114.543 34.88 115.455 33.408 115.455 31.712C115.455 30 114.543 28.528 112.767 28.528ZM126.483 27.408V35.056C126.483 37.792 124.723 39.104 122.131 39.104C120.771 39.104 119.683 38.72 118.915 38.208L119.603 37.008C120.227 37.424 120.979 37.808 122.115 37.808C123.715 37.808 124.979 37.088 124.979 35.056V34.32H124.947C124.291 35.344 123.251 35.856 122.083 35.856C119.811 35.856 118.419 33.936 118.419 31.6C118.419 29.248 119.827 27.232 122.195 27.232C123.443 27.232 124.371 27.792 124.979 28.64H125.011L125.059 27.408H126.483ZM122.467 34.528C124.115 34.528 125.011 33.184 125.011 31.52C125.011 29.872 124.099 28.56 122.483 28.56C120.803 28.56 119.955 29.936 119.955 31.552C119.955 33.104 120.739 34.528 122.467 34.528ZM128.945 25.36V23.712H130.593V25.36H128.945ZM130.529 36H129.009V27.408H130.529V36ZM134.032 31.04H138.8C138.704 29.632 138 28.512 136.48 28.512C134.976 28.512 134.176 29.6 134.032 31.04ZM138.928 33.84L139.984 34.784C139.216 35.68 138.112 36.176 136.736 36.176C134.032 36.176 132.496 34.4 132.496 31.696C132.496 29.104 134.032 27.232 136.512 27.232C138.976 27.232 140.304 29.072 140.304 31.424C140.304 31.68 140.288 32.08 140.256 32.304H134.048C134.208 33.936 135.152 34.88 136.752 34.88C137.696 34.88 138.416 34.528 138.928 33.84ZM145.013 36.176C143.493 36.176 142.309 35.728 141.413 34.88L142.341 33.84C143.093 34.56 144.037 34.896 145.061 34.896C146.421 34.896 147.077 34.4 147.077 33.664C147.077 32.848 146.213 32.656 144.773 32.352C143.157 32 141.717 31.504 141.717 29.84C141.717 28.368 142.869 27.232 145.109 27.232C146.485 27.232 147.557 27.648 148.453 28.464L147.541 29.504C146.805 28.832 145.989 28.512 145.061 28.512C143.861 28.512 143.253 29.024 143.253 29.68C143.253 30.48 144.021 30.656 145.509 30.976C147.093 31.328 148.613 31.776 148.613 33.488C148.613 35.056 147.365 36.176 145.013 36.176Z" fill="black"/>
<circle cx="20.8113" cy="20.8113" r="20.8113" fill="black"/>
<rect width="2.91353" height="23.7948" rx="1.45677" transform="matrix(-0.940344 -0.340225 -0.340225 0.940344 20.7431 9.85651)" fill="white"/>
<rect width="2.91353" height="23.7948" rx="1.45677" transform="matrix(-0.940344 -0.340225 -0.340225 0.940344 26.1644 9.85651)" fill="white"/>
<rect width="2.91353" height="23.7723" rx="1.45677" transform="matrix(-0.940344 -0.340225 -0.340225 0.940344 31.5857 9.85651)" fill="white"/>
</svg>
